<?xml version="1.0" encoding="UTF-8" standalone="no"?>
<!-- Created with Inkscape (http://www.inkscape.org/) -->

<svg
   xmlns:dc="http://purl.org/dc/elements/1.1/"
   xmlns:cc="http://creativecommons.org/ns#"
   xmlns:rdf="http://www.w3.org/1999/02/22-rdf-syntax-ns#"
   xmlns:svg="http://www.w3.org/2000/svg"
   xmlns="http://www.w3.org/2000/svg"
   xmlns:sodipodi="http://sodipodi.sourceforge.net/DTD/sodipodi-0.dtd"
   xmlns:inkscape="http://www.inkscape.org/namespaces/inkscape"
   width="744.09448819"
   height="1052.3622047"
   id="svg2"
   version="1.1"
   inkscape:version="0.91 r13725"
   sodipodi:docname="launcher.svg">
  <defs
     id="defs4">
    <clipPath
       clipPathUnits="userSpaceOnUse"
       id="clipPath5527">
      <rect
         ry="24.285706"
         rx="22.500004"
         y="-3136.4858"
         x="5211.9678"
         height="303.13379"
         width="302.85715"
         id="rect5529"
         style="fill:#3821ae;fill-opacity:1;stroke:#3f3f3f;stroke-width:0.49999997;stroke-miterlimit:4;stroke-dasharray:none;stroke-opacity:1" />
    </clipPath>
  </defs>
  <sodipodi:namedview
     id="base"
     pagecolor="#ffffff"
     bordercolor="#666666"
     borderopacity="1.0"
     inkscape:pageopacity="0.0"
     inkscape:pageshadow="2"
     inkscape:zoom="0.49497476"
     inkscape:cx="-1449.9531"
     inkscape:cy="611.03909"
     inkscape:document-units="px"
     inkscape:current-layer="layer1"
     showgrid="false"
     inkscape:window-width="1680"
     inkscape:window-height="988"
     inkscape:window-x="-8"
     inkscape:window-y="-8"
     inkscape:window-maximized="1" />
  <metadata
     id="metadata7">
    <rdf:RDF>
      <cc:Work
         rdf:about="">
        <dc:format>image/svg+xml</dc:format>
        <dc:type
           rdf:resource="http://purl.org/dc/dcmitype/StillImage" />
        <dc:title />
      </cc:Work>
    </rdf:RDF>
  </metadata>
  <g
     inkscape:label="Layer 1"
     inkscape:groupmode="layer"
     id="layer1">
    <path
       style="fill:#3f51b5;fill-opacity:1;fill-rule:evenodd;stroke:none"
       d="m 112.43454,1500.2617 c -25.325704,0 -45.687504,20.393 -45.687504,45.7187 l 0,14.2813 320.000014,0 0,-14.2813 c 0,-25.3257 -20.39304,-45.7187 -45.71875,-45.7187 l -228.59376,0 z"
       id="path3769"
       inkscape:connector-curvature="0"
       inkscape:export-filename="/home/deekay/cake.png"
       inkscape:export-xdpi="104.7742"
       inkscape:export-ydpi="104.7742" />
    <rect
       ry="10.714286"
       y="1613.999"
       x="66.74704"
       height="65.714287"
       width="320"
       id="rect3771"
       style="fill:#3f51b5;fill-opacity:1;fill-rule:evenodd;stroke:none"
       inkscape:export-filename="/home/deekay/cake.png"
       inkscape:export-xdpi="104.7742"
       inkscape:export-ydpi="104.7742" />
    <rect
       ry="16.094891"
       y="1682.2667"
       x="27.461277"
       height="33.427853"
       width="398.57144"
       id="rect3773"
       style="fill:#00bfa5;fill-opacity:1;fill-rule:evenodd;stroke:none"
       inkscape:export-filename="/home/deekay/cake.png"
       inkscape:export-xdpi="104.7742"
       inkscape:export-ydpi="104.7742" />
    <rect
       style="fill:#3f51b5;fill-opacity:1;stroke:none"
       id="rect3775"
       width="68.651932"
       height="130"
       x="192.42105"
       y="1366.4095"
       ry="8.125"
       inkscape:export-filename="/home/deekay/cake.png"
       inkscape:export-xdpi="104.7742"
       inkscape:export-ydpi="104.7742" />
    <rect
       style="fill:#00bfa5;fill-opacity:1;fill-rule:evenodd;stroke:none"
       id="rect3762"
       width="320"
       height="65.714287"
       x="66.74704"
       y="1560.2667"
       ry="0"
       inkscape:export-filename="/home/deekay/cake.png"
       inkscape:export-xdpi="104.7742"
       inkscape:export-ydpi="104.7742" />
    <path
       style="fill:#d45143;fill-opacity:1;stroke:none"
       d="m 197.69813,1316.1422 c 0.57619,-23.7442 37.14265,-62.2924 37.14265,-62.2924 0,0 -5.48701,34.5161 -0.11336,50.6359 3.66736,11.0014 20.88866,16.9241 21.07871,28.4421 0.16804,10.1837 -8.292,20.6324 -17.79837,25.6686 -5.01802,2.6584 -12.34434,3.3428 -17.30778,0.597 -14.79792,-8.1864 -23.39068,-27.0268 -23.00182,-43.0512 z"
       id="path3786"
       inkscape:connector-curvature="0"
       sodipodi:nodetypes="acaaaaa"
       inkscape:export-filename="/home/deekay/cake.png"
       inkscape:export-xdpi="104.7742"
       inkscape:export-ydpi="104.7742" />
    <path
       id="path7955"
       d="m -309.22602,518.81418 0.03,0.5686 2.5138,0 -2.5436,-0.5686 z"
       style="opacity:0.79000005;fill:#22bfd0;fill-opacity:1;stroke:none"
       inkscape:connector-curvature="0"
       inkscape:export-xdpi="249.30748"
       inkscape:export-ydpi="249.30748" />
    <path
       id="path7957"
       d="m -350.19452,518.69448 0.3291,0.6883 7.9903,0 -8.3194,-0.6883 z"
       style="opacity:0.79000005;fill:#22bfd0;fill-opacity:1;stroke:none"
       inkscape:connector-curvature="0"
       inkscape:export-xdpi="249.30748"
       inkscape:export-ydpi="249.30748" />
    <path
       id="path7963"
       d="m -361.02772,719.38268 -11.6112,-0.9576 0.4788,0.9576 11.1324,0 z"
       style="opacity:0.79000005;fill:#22bfd0;fill-opacity:1;stroke:none"
       inkscape:connector-curvature="0"
       inkscape:export-xdpi="249.30748"
       inkscape:export-ydpi="249.30748" />
    <path
       id="path7965"
       d="m -260.83592,719.38268 3.5912,0 3.98,-7.8705 -4.0099,7.5713 -3.5613,0.2992 z"
       style="opacity:0.79000005;fill:#22bfd0;fill-opacity:1;stroke:none"
       inkscape:connector-curvature="0"
       inkscape:export-xdpi="249.30748"
       inkscape:export-ydpi="249.30748" />
    <path
       id="path7971"
       d="m -309.22602,718.81408 0.03,0.5686 2.5138,0 -2.5436,-0.5686 z"
       style="opacity:0.79000005;fill:#22bfd0;fill-opacity:1;stroke:none"
       inkscape:connector-curvature="0"
       inkscape:export-xdpi="249.30748"
       inkscape:export-ydpi="249.30748" />
    <path
       id="path7973"
       d="m -350.19452,718.69438 0.3291,0.6883 7.9903,0 -8.3194,-0.6883 z"
       style="opacity:0.79000005;fill:#22bfd0;fill-opacity:1;stroke:none"
       inkscape:connector-curvature="0"
       inkscape:export-xdpi="249.30748"
       inkscape:export-ydpi="249.30748" />
    <path
       id="path7977"
       d="m -412.86722,569.86578 3.75,0 4.1562,-8.2188 -4.1874,7.9063 -3.7188,0.3125 z"
       style="opacity:0.79000005;fill:#22bfd0;fill-opacity:1;stroke:none"
       inkscape:connector-curvature="0"
       inkscape:export-xdpi="249.30748"
       inkscape:export-ydpi="249.30748" />
    <rect
       y="380.34613"
       x="-495.66757"
       height="361"
       width="361"
       id="rect7980"
       style="fill:#00bfa5;fill-opacity:1;stroke:none"
       ry="35.791363"
       rx="33.768372"
       inkscape:export-xdpi="249.30748"
       inkscape:export-ydpi="249.30748" />
    <path
       style="fill:#ffffff;fill-opacity:1;stroke:none"
       d="m -305.10382,421.89568 c -18.3827,2.2983 -34.6754,23.9187 -11.5313,35.3438 10e-5,-1e-4 0.7828,-1.8244 2.5313,-3.7188 22.934,-15.665 -1.3002,-24.7039 9,-31.625 z m -15.4687,39.8125 c -1.6784,-1e-4 -3.0313,2.4042 -3.0313,5.375 l 0,34.4063 c 5.162,-4.0094 8.6366,-8.88 9.2813,-15.2188 0.3,-1.6174 -0.5449,-2.4778 -0.5938,-4.3125 2.8431,0.4888 4.9215,1.4774 6.625,2.5313 l 0,-17.4063 c 0,-2.9708 -1.3529,-5.375 -3.0312,-5.375 l -9.25,0 z m 7.6562,24.25 c 0.049,1.8347 0.8937,2.695 0.5938,4.3125 -3.123,30.7056 -72.8653,26.8338 -77.2813,58.5938 22.2755,-15.682 69.2674,-26.0346 86.7813,-43.3438 2.9997,-3.846 2.5448,-5.6055 2.6874,-6.4688 -0.6373,-4.0893 -1.0612,-6.1206 -3.4687,-8.7187 -2.1566,-1.5861 -4.7964,-3.5985 -9.3125,-4.375 z m 15.7188,10.4375 c -0.1432,0 -0.2799,0.014 -0.4063,0.031 -0.7861,0.1101 -1.2263,0.6078 -1.0313,1.2813 12.5884,27.0822 -144.4579,45.3059 -123.625,108.2187 l 20.875,7.9688 10.7188,-3.5625 c -0.2432,-0.9937 -0.4272,-1.9827 -0.5312,-2.9375 -6.3326,-43.7946 102.9027,-34.1475 103.3124,-95.4688 -0.5171,-6.4281 -2.7876,-10.8344 -5.5624,-13.5937 -1.3658,-1.3582 -2.7483,-1.9162 -3.75,-1.9375 z m 12.2812,12.1562 c 0.9844,33.8239 -23.6326,47.8659 -49.0938,58.0313 -4.136,1.8918 -8.3016,3.6734 -12.4374,5.375 2.7642,-1.23 5.5317,-2.4871 8.3124,-3.75 -27.5379,10.5812 -54.4917,17.6223 -49.5624,41.125 l 15.0312,-5 28.7188,9.5625 11.75,-3.9062 c 2.6401,-5.4882 4.826,-6.8744 12.1562,-10.5313 45.8172,-16.0175 72.7614,-38.7482 63.375,-70.75 -2.7503,-8.6703 -18.1426,-17.9097 -28.25,-20.1563 z m 32.8438,30.9688 c 0.56,47.9079 -58.8672,54.3369 -73.5938,68.2812 l 10.4688,-3.4687 28.7187,9.5625 28.7187,-9.5625 11,3.6563 c 9.5479,-6.0901 17.8111,-13.5926 22,-23.5938 2.2399,-9.2665 3.0618,-16.7954 2.0938,-23.125 -0.3295,-2.3606 -1.6103,-4.8832 -3.5312,-7.4062 -6.1164,-6.2187 -16.5937,-12.0734 -25.875,-14.3438 z m 31.125,23.5938 c 1.6338,7.7654 1.4089,14.5602 -0.1876,20.5312 -1.567,6.8279 -4.6793,12.3769 -8.4687,16.875 -2.7638,4.3836 -6.4944,7.4113 -9.9687,9.8438 l 10.5624,3.5312 16.6563,-5.9375 c 11.2674,-13.182 12.9599,-33.9278 -8.5937,-44.8437 z m -151.7188,47.2187 -28.7188,9.5625 -24.0937,-9.2188 52.8125,107.7813 114.9062,0 54.75,-107.8437 -26,9.2812 -28.75,-9.5625 -28.7187,9.5625 -28.7187,-9.5625 -28.75,9.5625 -28.7188,-9.5625 z"
       id="path7959"
       inkscape:connector-curvature="0"
       inkscape:export-xdpi="249.30748"
       inkscape:export-ydpi="249.30748" />
    <path
       inkscape:export-ydpi="302"
       inkscape:export-xdpi="302"
       inkscape:connector-curvature="0"
       id="path5645"
       d="m -305.10382,21.895675 c -18.3827,2.2983 -34.6754,23.9187 -11.5313,35.3438 10e-5,-10e-5 0.7828,-1.8244 2.5313,-3.7188 22.934,-15.665 -1.3002,-24.7039 9,-31.625 z m -15.4687,39.8125 c -1.6784,-10e-5 -3.0313,2.4042 -3.0313,5.375 l 0,34.406305 c 5.162,-4.009405 8.6366,-8.880005 9.2813,-15.218805 0.3,-1.6174 -0.5449,-2.4778 -0.5938,-4.3125 2.8431,0.4888 4.9215,1.4774 6.625,2.5313 l 0,-17.4063 c 0,-2.9708 -1.3529,-5.375 -3.0312,-5.375 l -9.25,0 z m 7.6562,24.25 c 0.049,1.8347 0.8937,2.695 0.5938,4.3125 -3.123,30.705605 -72.8653,26.833805 -77.2813,58.593805 22.2755,-15.682 69.2674,-26.0346 86.7813,-43.3438 2.9997,-3.846 2.5448,-5.605505 2.6874,-6.468805 -0.6373,-4.0893 -1.0612,-6.1206 -3.4687,-8.7187 -2.1566,-1.5861 -4.7964,-3.5985 -9.3125,-4.375 z m 15.7188,10.4375 c -0.1432,0 -0.2799,0.014 -0.4063,0.031 -0.7861,0.1101 -1.2263,0.6078 -1.0313,1.2813 12.5884,27.082205 -144.4579,45.305905 -123.625,108.218705 l 20.875,7.9688 10.7188,-3.5625 c -0.2432,-0.9937 -0.4272,-1.9827 -0.5312,-2.9375 -6.3326,-43.7946 102.9027,-34.1475 103.3124,-95.4688 -0.5171,-6.4281 -2.7876,-10.8344 -5.5624,-13.593705 -1.3658,-1.3582 -2.7483,-1.9162 -3.75,-1.9375 z m 12.2812,12.156205 c 0.9844,33.8239 -23.6326,47.8659 -49.0938,58.0313 -4.136,1.8918 -8.3016,3.6734 -12.4374,5.375 2.7642,-1.23 5.5317,-2.4871 8.3124,-3.75 -27.5379,10.5812 -54.4917,17.6223 -49.5624,41.125 l 15.0312,-5 28.7188,9.5625 11.75,-3.9062 c 2.6401,-5.4882 4.826,-6.8744 12.1562,-10.5313 45.8172,-16.0175 72.7614,-38.7482 63.375,-70.75 -2.7503,-8.6703 -18.1426,-17.9097 -28.25,-20.1563 z m 32.8438,30.9688 c 0.56,47.9079 -58.8672,54.3369 -73.5938,68.2812 l 10.4688,-3.4687 28.7187,9.5625 28.7187,-9.5625 11,3.6563 c 9.5479,-6.0901 17.8111,-13.5926 22,-23.5938 2.2399,-9.2665 3.0618,-16.7954 2.0938,-23.125 -0.3295,-2.3606 -1.6103,-4.8832 -3.5312,-7.4062 -6.1164,-6.2187 -16.5937,-12.0734 -25.875,-14.3438 z m 31.125,23.5938 c 1.6338,7.7654 1.4089,14.5602 -0.1876,20.5312 -1.567,6.8279 -4.6793,12.3769 -8.4687,16.875 -2.7638,4.3836 -6.4944,7.4113 -9.9687,9.8438 l 10.5624,3.5312 16.6563,-5.9375 c 11.2674,-13.182 12.9599,-33.9278 -8.5937,-44.8437 z m -151.7188,47.2187 -28.7188,9.5625 -24.0937,-9.2188 52.8125,107.7813 114.9062,0 54.75,-107.8437 -26,9.2812 -28.75,-9.5625 -28.7187,9.5625 -28.7187,-9.5625 -28.75,9.5625 -28.7188,-9.5625 z"
       style="fill:#000000;fill-opacity:1;stroke:none" />
    <path
       id="path7701"
       d="m 82.7348,512.0891 0.03,0.5686 2.5138,0 -2.5436,-0.5686 z"
       style="opacity:0.79000005;fill:#22bfd0;fill-opacity:1;stroke:none"
       inkscape:connector-curvature="0"
       inkscape:export-xdpi="303.45874"
       inkscape:export-ydpi="303.45874" />
    <path
       id="path7703"
       d="m 41.7663,511.9694 0.3291,0.6883 7.9903,0 -8.3194,-0.6883 z"
       style="opacity:0.79000005;fill:#22bfd0;fill-opacity:1;stroke:none"
       inkscape:connector-curvature="0"
       inkscape:export-xdpi="303.45874"
       inkscape:export-ydpi="303.45874" />
    <rect
       ry="5.3623209"
       rx="3.029578"
       y="454.98987"
       x="68.34642"
       height="73.079849"
       width="15.332639"
       id="rect7705"
       style="fill:#00bfa5;fill-opacity:1;stroke:none"
       inkscape:export-xdpi="303.45874"
       inkscape:export-ydpi="303.45874" />
    <path
       sodipodi:nodetypes="cccc"
       inkscape:connector-curvature="0"
       id="path7707"
       d="m 86.8557,415.158 c -10.3002,6.9211 13.9302,15.9807 -9.0038,31.6457 -1.7485,1.8944 -2.5157,3.7075 -2.5157,3.7075 -23.1441,-11.425 -6.8632,-33.0549 11.5195,-35.3532 z"
       style="fill:#eb2200;fill-opacity:1;stroke:none"
       inkscape:export-xdpi="303.45874"
       inkscape:export-ydpi="303.45874" />
    <path
       style="fill:#ffffff;fill-opacity:1;stroke:none"
       d="m 77.8815,476.9354 c 2.2778,38.7893 -75.3211,27.7793 -78.7812,67.4631 -27.7717,16.129 -46.0191,37.6463 -26.125,70.6625 5.4777,-1.3622 16.4464,0.7189 28.716,-5.6261 0.7607,6.875 2.3214,10.666 8.5652,20.7287 5.2453,-1.3043 34.0797,-4.2316 48.0938,-10.0799 0.4182,7.8745 4.0975,17.9316 12.375,31.2718 5.595,-1.3913 10.936,5.7295 23.5938,-0.9289 -15.5307,-28.5401 87.9984,-28.09 74.7187,-96.0858 -0.7402,-9.7792 -18.2789,-22.7829 -32.3437,-26.0426 -0.043,4.4484 -0.4422,8.5107 -1.125,12.2816 0.7771,-5.36 0.8545,-11.2498 0.094,-17.786 -0.7402,-9.7792 -18.2791,-22.7829 -32.3437,-26.0426 0.015,0.5699 0.028,1.1259 0.031,1.6857 -0.3511,-4.5481 -2.2576,-7.8394 -10.9375,-9.8735 -1.3569,-5.4788 -4.6831,-9.3455 -14.5313,-11.628 z m 15.1553,16.1509 c 0.6876,1.6433 -3.0242,2.8802 -1.6104,4.0748 -0.1609,-1.7007 2.388,-3.1739 1.6104,-4.0748 z m 75.5947,60.1381 c 7.0626,31.3778 -15.1253,44.3987 -35.2812,62.6468 24.2471,9.7817 14.4619,21.7723 32.7188,0.7723 39.5282,-14.9092 16.6273,-60.1593 2.5624,-63.4191 z"
       id="path7709"
       inkscape:connector-curvature="0"
       sodipodi:nodetypes="cccccccccccccccccccccccc"
       inkscape:export-xdpi="303.45874"
       inkscape:export-ydpi="303.45874" />
    <path
       id="path7731"
       d="m 25.0995,711.5086 -5.7776,0.1914 2.1582,-0.766 z"
       style="opacity:0.79000005;fill:#22bfd0;fill-opacity:1;stroke:none"
       inkscape:connector-curvature="0"
       sodipodi:nodetypes="cccc"
       inkscape:export-xdpi="303.45874"
       inkscape:export-ydpi="303.45874" />
    <path
       style="fill:#00bfa5;fill-opacity:1;stroke:none"
       d="m 79.0452,479.2387 c 0.049,1.8347 0.8937,2.6949 0.5937,4.3124 -3.123,30.7056 -72.8653,26.8338 -77.2813,58.5938 22.2755,-15.682 69.2674,-26.0346 86.7813,-43.3438 2.9998,-3.846 2.5449,-5.6055 2.6875,-6.4687 -0.6374,-4.0893 -1.0613,-6.1206 -3.4688,-8.7187 -2.1566,-1.5861 -4.7963,-3.5985 -9.3124,-4.375 z"
       id="path7796"
       inkscape:connector-curvature="0"
       inkscape:export-xdpi="303.45874"
       inkscape:export-ydpi="303.45874" />
    <path
       style="fill:#00bfa5;fill-opacity:1;stroke:none"
       d="m 94.7639,489.6761 c -0.1431,0 -0.2799,0.014 -0.4063,0.031 -0.7861,0.1101 -1.2263,0.6078 -1.0312,1.2813 12.5883,27.0822 -144.4579,45.3058 -123.625,108.2187 l 20.875,7.9687 10.7188,-3.5624 c -0.2432,-0.9937 -0.4273,-1.9828 -0.5313,-2.9376 -6.3326,-43.7946 102.9028,-34.1475 103.3125,-95.4687 -0.5171,-6.4282 -2.7876,-10.8344 -5.5625,-13.5937 -1.3658,-1.3582 -2.7482,-1.9163 -3.75,-1.9376 z"
       id="path7794"
       inkscape:connector-curvature="0"
       inkscape:export-xdpi="303.45874"
       inkscape:export-ydpi="303.45874" />
    <path
       style="fill:#00bfa5;fill-opacity:1;stroke:none"
       d="m 107.0452,501.8324 c 0.9844,33.8238 -23.6326,47.8659 -49.0938,58.0313 -4.1361,1.8918 -8.3017,3.6734 -12.4375,5.375 2.7643,-1.23 5.0317,-1.9871 7.8125,-3.25 -27.5379,10.5812 -53.9918,17.1223 -49.0625,40.625 l 15.0313,-5 28.7187,9.5624 11.75,-3.9062 c 2.6402,-5.4882 4.8261,-6.8743 12.1563,-10.5312 45.8172,-16.0175 72.7614,-38.7482 63.375,-70.75 -2.7503,-8.6703 -18.1426,-17.9097 -28.25,-20.1563 z"
       id="path7792"
       inkscape:connector-curvature="0"
       sodipodi:nodetypes="ccccccccccc"
       inkscape:export-xdpi="303.45874"
       inkscape:export-ydpi="303.45874" />
    <path
       style="fill:#00bfa5;fill-opacity:1;stroke:none"
       d="m 139.8889,532.8011 c 0.56,47.9079 -58.8671,54.3369 -73.5937,68.2813 l 10.4687,-3.4687 28.7187,9.5624 28.7188,-9.5624 11,3.6562 c 9.5479,-6.09 17.811,-13.5926 22,-23.5938 2.2398,-9.2665 3.0618,-16.7954 2.0938,-23.125 -0.3295,-2.3606 -1.6104,-4.8831 -3.5313,-7.4062 -6.1164,-6.2187 -16.5936,-12.0734 -25.875,-14.3438 z"
       id="path7790"
       inkscape:connector-curvature="0"
       inkscape:export-xdpi="303.45874"
       inkscape:export-ydpi="303.45874" />
    <path
       style="fill:#00bfa5;fill-opacity:1;stroke:none"
       d="m 171.0139,556.3949 c 1.6339,7.7655 1.409,14.5602 -0.1875,20.5312 -1.567,6.8279 -4.6794,12.3769 -8.4688,16.875 -2.7638,4.3836 -6.4944,7.4114 -9.9687,9.8438 l 10.5625,3.5312 16.6562,-5.9374 c 11.2674,-13.182 12.9599,-33.9278 -8.5937,-44.8438 z"
       id="path7788"
       inkscape:connector-curvature="0"
       inkscape:export-xdpi="303.45874"
       inkscape:export-ydpi="303.45874" />
    <path
       style="fill:#3f51b5;fill-opacity:1;stroke:none"
       d="m 19.2952,603.6137 -28.7188,9.5624 -24.0938,-9.2187 52.8126,107.7813 114.9062,0 54.75,-107.8438 -26,9.2812 -28.75,-9.5624 -28.7188,9.5624 -28.7187,-9.5624 -28.75,9.5624 -28.7187,-9.5624 z"
       id="path7776"
       inkscape:connector-curvature="0"
       inkscape:export-xdpi="303.45874"
       inkscape:export-ydpi="303.45874" />
    <rect
       inkscape:export-ydpi="299.49451"
       inkscape:export-xdpi="299.49451"
       inkscape:export-filename="/Users/Cess/Pictures/inkscape sketches/david_geburtstags_app/kuchen_schatten_v4_original_farben.png"
       style="fill:#3f51b5;fill-opacity:1;stroke:none;stroke-width:0.49589041;stroke-miterlimit:4;stroke-dasharray:none;stroke-opacity:1"
       id="rect5224"
       width="300.50388"
       height="300.50626"
       x="-1568.7085"
       y="397.03275"
       rx="22.325174"
       ry="24.075201" />
    <path
       inkscape:export-ydpi="299.49451"
       inkscape:export-xdpi="299.49451"
       inkscape:export-filename="/Users/Cess/Pictures/inkscape sketches/david_geburtstags_app/kuchen_schatten_v4_original_farben.png"
       sodipodi:nodetypes="ccccccccccccccccccccccccccccccccccsccccccc"
       style="fill:#303f9f;fill-opacity:1;stroke:none"
       d="m 5372.9688,-3100.6875 c -1.9784,0.2768 -3.9503,0.7501 -5.8126,1.4687 -1.4191,0.5478 -2.7055,1.3347 -4,2.0938 l -4.0624,26.4688 c 0.046,0.032 0.079,0.062 0.125,0.094 1.0483,0.7186 2.2408,1.4101 3.5624,2.0625 l 5.4376,5.4062 -10.9063,0 c -0.885,2.4381 -1.5528,4.5097 0.125,6.1876 l 0.1563,0.1562 -4.4688,14.625 0,25.8125 5.9688,5.9687 11.5937,16.0938 -85.5,18.9375 c 0,2.4898 1,20.9983 0,20.3437 l 7.3747,7.2497 70.6875,76.6876 -101.25,1.9687 c -1.2075,0.023 -2.3629,-0.29 -3.4062,-0.8437 -0.4386,-0.2328 -0.838,-0.5386 -1.2188,-0.875 l 124.75,124.75 c 3.4158,3.4157 12.9893,4.4281 13.9062,-1.5626 l 138.1563,-44.1562 c 0.5937,-3.8787 2.4967,-7.1357 2.8437,-9.875 l 55.5938,55.5938 c 3.4158,3.4157 12.9892,4.4279 13.9062,-1.5626 l 6.1563,-40.1562 c 0.917,-5.9905 4.9783,-10.4905 1.5625,-13.9062 l -5.75,-5.7188 5.6875,-37.0312 c 0.917,-5.9907 4.9783,-10.4906 1.5625,-13.9063 l -130.125,-130.1563 c -0.122,-0.1718 -0.2722,-0.3346 -0.4375,-0.5 L 5374.1562,-3100 c -0.2551,-0.2551 -0.6984,-0.4077 -1.0312,-0.625 -0.046,-0.03 -0.1093,-0.035 -0.1562,-0.062 z m 86.7812,221.8125 5.875,5.875 -35.375,0.6875 z"
       id="path5226"
       clip-path="url(#clipPath5527)"
       inkscape:connector-curvature="0"
       transform="matrix(0.9922298,0,0,0.99133213,-6740.1783,3506.332)" />
    <path
       inkscape:export-ydpi="299.49451"
       inkscape:export-xdpi="299.49451"
       inkscape:export-filename="/Users/Cess/Pictures/inkscape sketches/david_geburtstags_app/kuchen_schatten_v4_original_farben.png"
       sodipodi:nodetypes="ccccscccssssssccsssssssssssss"
       style="fill:#00bfa5;fill-opacity:1;stroke:none"
       d="m -1408.6252,432.42848 c -16.6656,2.0818 -31.4211,21.6599 -10.4388,32.0083 0,0 0.6797,-1.6372 2.2647,-3.3532 20.7918,-14.1887 -1.1639,-22.3861 8.1741,-28.6551 z m -18.0158,37.3567 c -1.1058,0 -1.9972,1.5827 -1.9971,3.5382 l 0,42.9961 20.3629,0 0,-42.9961 c 0,-1.9555 -0.8914,-3.5382 -1.9971,-3.5382 z m -60.7802,52.3118 c -4.793,0 -8.6476,4.8331 -8.6476,10.8408 l 0,43.7924 c 0,0.055 0,0.1092 0,0.1645 l 155.2243,0 c 6e-4,-0.055 0,-0.1089 0,-0.1645 l 0,-43.7924 c 0,-6.0077 -3.8546,-10.8408 -8.6475,-10.8408 z m -31.6461,62.0623 c -4.7931,0 -8.6476,4.8331 -8.6476,10.8409 l 0,56.2819 c 0,6.0078 3.8545,10.8614 8.6476,10.8614 l 201.2212,0 c 4.793,0 8.6476,-4.8536 8.6476,-10.8614 l 0,-56.2819 c 0,-6.0078 -3.8546,-10.8409 -8.6476,-10.8409 z"
       id="path5228"
       inkscape:connector-curvature="0" />
    <path
       inkscape:connector-curvature="0"
       id="path5643"
       d="m -1412.8485,-7.9980264 c -16.6656,2.0818 -31.4211,21.6599004 -10.4388,32.0083004 0,0 0.6797,-1.6372 2.2647,-3.3532 20.7918,-14.1887004 -1.1639,-22.3861004 8.1741,-28.6551004 z m -18.0158,37.3567004 c -1.1058,0 -1.9972,1.5827 -1.9971,3.5382 l 0,42.9961 20.3629,0 0,-42.9961 c 0,-1.9555 -0.8914,-3.5382 -1.9971,-3.5382 z m -60.7802,52.3118 c -4.793,0 -8.6476,4.8331 -8.6476,10.8408 l 0,43.792396 c 0,0.055 0,0.1092 0,0.1645 l 155.2243,0 c 6e-4,-0.055 0,-0.1089 0,-0.1645 l 0,-43.792396 c 0,-6.0077 -3.8546,-10.8408 -8.6475,-10.8408 z m -31.6461,62.062296 c -4.7931,0 -8.6476,4.8331 -8.6476,10.8409 l 0,56.2819 c 0,6.0078 3.8545,10.8614 8.6476,10.8614 l 201.2212,0 c 4.793,0 8.6476,-4.8536 8.6476,-10.8614 l 0,-56.2819 c 0,-6.0078 -3.8546,-10.8409 -8.6476,-10.8409 z"
       style="fill:#00bfa5;fill-opacity:1;stroke:none"
       sodipodi:nodetypes="ccccscccssssssccsssssssssssss"
       inkscape:export-filename="/Users/Cess/Pictures/inkscape sketches/david_geburtstags_app/kuchen_schatten_v4_original_farben.png"
       inkscape:export-xdpi="302"
       inkscape:export-ydpi="302" />
    <rect
       inkscape:export-ydpi="251.10194"
       inkscape:export-xdpi="251.10194"
       inkscape:export-filename="/Users/Cess/Pictures/inkscape sketches/david_geburtstags_app/kuchen_v2.png"
       ry="6.0567183"
       rx="3.421895"
       y="453.90018"
       x="-902.49176"
       height="85.518959"
       width="26.301111"
       id="rect3983"
       style="fill:#00bfa5;fill-opacity:1;stroke:none" />
    <rect
       style="fill:#00bfa5;fill-opacity:1;stroke:none"
       id="rect4003"
       width="26.301111"
       height="85.518959"
       x="-661.78033"
       y="674.66595"
       rx="3.421895"
       ry="6.0567183"
       inkscape:export-filename="/Users/Cess/Pictures/inkscape sketches/david_geburtstags_app/kuchen_v2.png"
       inkscape:export-xdpi="251.10194"
       inkscape:export-ydpi="251.10194"
       transform="matrix(0.95741067,0.28872965,-0.28872965,0.95741067,0,0)" />
    <rect
       transform="matrix(-0.95741067,0.28872965,0.28872965,0.95741067,0,0)"
       inkscape:export-ydpi="251.10194"
       inkscape:export-xdpi="251.10194"
       inkscape:export-filename="/Users/Cess/Pictures/inkscape sketches/david_geburtstags_app/kuchen_v2.png"
       ry="6.0567183"
       rx="3.421895"
       y="162.36229"
       x="1043.916"
       height="85.518959"
       width="26.301111"
       id="rect4007"
       style="fill:#00bfa5;fill-opacity:1;stroke:none" />
    <rect
       inkscape:export-ydpi="251.10194"
       inkscape:export-xdpi="251.10194"
       inkscape:export-filename="/Users/Cess/Pictures/inkscape sketches/david_geburtstags_app/kuchen_v2.png"
       style="fill:#3f51b5;fill-opacity:1;stroke:none"
       id="rect3985"
       width="200.56616"
       height="92.364738"
       x="-991.23785"
       y="521.27765"
       rx="14.831486"
       ry="18.607327" />
    <rect
       inkscape:export-ydpi="251.10194"
       inkscape:export-xdpi="251.10194"
       inkscape:export-filename="/Users/Cess/Pictures/inkscape sketches/david_geburtstags_app/kuchen_v2.png"
       ry="7.4228892"
       style="fill:#00bfa5;fill-opacity:1;stroke:none;stroke-width:1;stroke-opacity:1"
       id="rect3987"
       width="358.26236"
       height="14.845778"
       x="-1070.0857"
       y="701.58356"
       rx="3.422889" />
    <rect
       inkscape:export-ydpi="251.10194"
       inkscape:export-xdpi="251.10194"
       inkscape:export-filename="/Users/Cess/Pictures/inkscape sketches/david_geburtstags_app/kuchen_v2.png"
       ry="18.607327"
       rx="14.831485"
       y="601.54108"
       x="-1032.1416"
       height="100.84782"
       width="282.3739"
       id="rect3989"
       style="fill:#3f51b5;fill-opacity:1;stroke:none" />
    <path
       inkscape:export-ydpi="251.10194"
       inkscape:export-xdpi="251.10194"
       inkscape:export-filename="/Users/Cess/Pictures/inkscape sketches/david_geburtstags_app/kuchen_v2.png"
       sodipodi:nodetypes="cccc"
       inkscape:connector-curvature="0"
       id="path3991"
       d="m -873.60884,393.13433 c -15.6898,10.5429 21.2198,24.3431 -13.715,48.2055 -2.6637,2.8856 -3.8325,5.6473 -3.8325,5.6473 -35.2548,-17.4032 -10.4544,-50.3517 17.5475,-53.8528 z"
       style="fill:#f54300;fill-opacity:1;stroke:none" />
    <rect
       inkscape:export-ydpi="251.10194"
       inkscape:export-xdpi="251.10194"
       inkscape:export-filename="/Users/Cess/Pictures/inkscape sketches/david_geburtstags_app/kuchen_v2.png"
       style="fill:#00bfa5;fill-opacity:1;stroke:none"
       id="rect3993"
       width="282.3739"
       height="26.623823"
       x="-1032.1416"
       y="638.6524"
       rx="0"
       ry="0" />
    <path
       style="fill:#f54300;fill-opacity:1;stroke:none"
       d="m -783.19394,405.01823 c -18.0656,5.5638 13.2875,29.4332 -27.0492,42.1926 -3.3834,1.9936 -5.2998,4.3002 -5.2998,4.3002 -28.7285,-26.8411 4.5289,-51.2257 32.349,-46.4928 z"
       id="path4005"
       inkscape:connector-curvature="0"
       sodipodi:nodetypes="cccc"
       inkscape:export-filename="/Users/Cess/Pictures/inkscape sketches/david_geburtstags_app/kuchen_v2.png"
       inkscape:export-xdpi="251.10194"
       inkscape:export-ydpi="251.10194" />
    <path
       inkscape:export-ydpi="251.10194"
       inkscape:export-xdpi="251.10194"
       inkscape:export-filename="/Users/Cess/Pictures/inkscape sketches/david_geburtstags_app/kuchen_v2.png"
       sodipodi:nodetypes="cccc"
       inkscape:connector-curvature="0"
       id="path4009"
       d="m -997.77544,407.01823 c 18.0656,5.5638 -13.28746,29.4332 27.0492,42.1926 3.3834,1.9936 5.2998,4.3002 5.2998,4.3002 28.7285,-26.8411 -4.5289,-51.2257 -32.349,-46.4928 z"
       style="fill:#f54300;fill-opacity:1;stroke:none" />
    <rect
       inkscape:export-filename="/Users/Cess/Pictures/inkscape sketches/david_geburtstags_app/192x192/kuchen_v3.png"
       inkscape:export-ydpi="90"
       inkscape:export-xdpi="90"
       ry="2.6055284"
       rx="1.6975411"
       y="342.18948"
       x="-1100.0916"
       height="418.27417"
       width="418.27417"
       id="rect3995"
       style="opacity:0;fill:#303f9f;fill-opacity:1;stroke:none" />
  </g>
</svg>
